<?xml version="1.0" standalone="no"?>
<!DOCTYPE svg PUBLIC "-//W3C//DTD SVG 20010904//EN"
 "http://www.w3.org/TR/2001/REC-SVG-20010904/DTD/svg10.dtd">
<svg version="1.0" xmlns="http://www.w3.org/2000/svg"
 width="512.000000pt" height="512.000000pt" viewBox="0 0 512.000000 512.000000"
 preserveAspectRatio="xMidYMid meet">
<metadata>
Created by potrace 1.14, written by Peter Selinger 2001-2017
</metadata>
<g transform="translate(0.000000,512.000000) scale(0.100000,-0.100000)"
fill="#000000" stroke="none">
<path d="M2557 5104 c-3 -3 -97 -16 -122 -18 -11 0 -22 -3 -25 -6 -3 -4 -25
-12 -50 -19 -75 -22 -230 -103 -250 -131 -3 -3 -16 -7 -30 -7 -25 0 -73 -10
-100 -20 -8 -4 -18 -5 -22 -5 -5 1 -8 -2 -8 -8 0 -5 -7 -10 -15 -10 -26 0
-120 -104 -148 -163 -48 -103 -70 -219 -70 -372 0 -96 10 -246 18 -253 2 -3
-4 -17 -14 -31 -39 -57 -56 -123 -56 -221 1 -87 3 -101 34 -165 22 -45 56 -91
99 -135 59 -59 68 -73 98 -162 33 -96 85 -208 130 -280 21 -33 24 -50 24 -132
0 -81 -3 -97 -19 -108 -18 -13 -53 -71 -57 -96 -1 -8 -4 -15 -6 -16 -14 -9
-122 -100 -161 -136 -27 -25 -52 -45 -56 -46 -3 0 -26 -6 -51 -14 -25 -7 -49
-14 -55 -16 -126 -28 -761 -232 -826 -264 -39 -21 -75 -68 -112 -150 -42 -91
-53 -120 -95 -245 -73 -216 -167 -550 -277 -978 l-38 -148 24 -51 c32 -68 125
-158 207 -199 37 -18 70 -37 74 -42 9 -15 -1 -36 -24 -48 -18 -10 -19 -8 -13
13 4 12 4 20 0 16 -4 -4 -9 -19 -10 -32 -3 -24 -2 -25 21 -9 13 8 24 11 24 5
0 -6 -5 -13 -10 -15 -6 -3 -5 -4 2 -3 7 1 14 14 16 27 1 13 3 30 4 37 1 6 5
12 8 12 10 0 7 -62 -3 -77 -5 -8 -4 -13 2 -13 6 0 11 5 11 11 0 5 5 7 11 3 8
-5 4 -13 -12 -26 -20 -16 -20 -18 -3 -9 11 5 26 17 33 25 8 9 18 13 23 10 7
-4 6 -9 0 -13 -7 -4 -8 -12 -2 -21 8 -13 10 -12 10 3 0 9 4 17 10 17 5 0 9 -6
7 -13 -1 -6 4 -11 12 -9 9 2 11 -3 7 -15 -5 -16 -4 -16 7 -3 15 18 37 24 37
10 0 -6 -6 -10 -12 -10 -15 -1 9 -17 32 -22 8 -2 19 -7 23 -13 5 -6 7 -3 4 7
-3 9 -3 19 0 22 7 7 44 -34 38 -43 -2 -4 7 -7 20 -7 13 0 22 3 19 7 -7 11 19
17 61 12 32 -3 46 1 65 19 18 17 22 18 17 5 -3 -9 -2 -17 3 -17 5 0 11 10 13
22 2 13 4 5 4 -17 0 -22 -2 -34 -5 -27 -2 6 -9 12 -15 12 -6 0 -1 -10 11 -23
12 -13 20 -26 17 -29 -3 -2 2 -5 10 -5 8 0 11 5 7 11 -12 20 -10 35 4 29 22
-8 48 5 36 20 -11 14 -12 48 -1 41 5 -2 5 -12 2 -21 -5 -12 -3 -14 7 -8 8 5
11 4 6 -3 -3 -6 -2 -13 4 -17 6 -4 8 -11 5 -16 -4 -5 1 -9 9 -9 9 0 15 3 15 8
-1 4 -1 14 0 22 1 12 4 12 12 -2 5 -10 17 -18 25 -18 8 0 12 5 9 10 -3 6 -1
10 4 10 6 0 11 -3 11 -7 0 -17 -16 -29 -37 -27 -12 1 -21 -2 -19 -5 2 -3 -7
-7 -20 -7 -13 -1 -22 1 -21 5 1 3 -2 7 -8 9 -22 8 -13 -16 10 -26 32 -15 30
-15 50 4 20 20 33 10 15 -11 -10 -12 -11 -18 -1 -28 10 -9 11 -8 6 5 -5 12 -2
16 12 13 10 -1 17 -7 16 -12 -1 -5 5 -10 13 -10 18 0 18 13 -1 21 -9 3 -12 12
-9 23 5 15 4 16 -6 3 -9 -12 -11 -12 -8 -1 2 8 11 15 19 17 7 1 21 5 31 9 11
4 18 0 23 -14 3 -12 11 -19 16 -15 5 3 7 10 4 15 -4 5 -1 9 4 9 6 0 11 -4 11
-9 0 -5 15 -8 33 -6 26 3 29 2 14 -6 -14 -8 -16 -14 -6 -25 9 -11 8 -14 -5
-14 -9 0 -15 3 -15 8 4 25 -2 34 -14 23 -8 -6 -16 -8 -19 -5 -3 2 -8 -2 -11
-10 -4 -10 -1 -13 9 -9 8 3 20 0 27 -5 7 -6 23 -11 35 -12 12 0 31 0 42 -1 13
0 18 -5 13 -12 -4 -8 -1 -8 9 1 10 8 19 9 22 3 3 -5 3 -11 -1 -14 -5 -2 -3 -3
3 -1 6 1 18 -3 25 -9 11 -10 11 -9 1 4 -6 9 -8 20 -4 24 4 5 1 5 -7 0 -10 -5
-12 -4 -7 4 5 7 13 8 24 2 12 -7 22 -5 34 6 15 13 16 13 14 -1 -1 -8 -5 -19
-9 -22 -10 -11 -8 -24 4 -24 5 0 7 5 4 10 -3 6 5 11 19 11 29 2 34 3 58 13 30
14 75 -23 48 -39 -6 -3 -7 1 -4 9 3 9 1 16 -6 16 -6 0 -8 -5 -4 -12 4 -7 3 -8
-5 -4 -6 4 -9 12 -6 17 4 5 -1 9 -9 9 -10 0 -13 -6 -10 -17 4 -11 2 -14 -3 -8
-11 14 -33 17 -33 5 0 -9 22 -15 44 -11 5 1 18 -6 29 -16 11 -10 17 -13 14 -7
-4 7 0 14 8 18 8 3 12 12 9 21 -3 8 -1 15 5 15 6 0 10 -5 8 -11 -1 -6 4 -14
11 -16 8 -3 10 1 5 14 -3 10 -3 15 1 12 4 -4 9 -21 11 -39 5 -36 15 -54 15
-26 0 9 5 14 10 11 6 -3 10 -1 10 5 0 7 -7 9 -17 5 -14 -5 -15 -4 -6 6 10 10
15 9 28 -1 12 -10 18 -10 32 1 11 10 14 10 9 2 -9 -16 -1 -16 27 -2 12 7 19 8
14 4 -4 -5 0 -16 8 -25 13 -14 13 -17 0 -17 -8 0 -12 4 -9 9 3 4 -3 5 -13 2
-15 -5 -16 -4 -3 5 12 8 7 10 -19 6 -32 -4 -55 -14 -35 -16 5 0 18 -2 29 -4
57 -11 68 -10 71 9 4 27 20 41 29 25 5 -8 4 -10 -3 -5 -7 4 -12 3 -12 -2 0
-17 13 -22 27 -10 11 9 13 8 11 -3 -2 -8 3 -13 10 -11 8 1 11 -2 7 -8 -3 -5 1
-10 9 -10 8 0 14 6 12 12 -1 7 -1 10 1 5 3 -4 10 -4 16 0 7 3 3 -4 -8 -17 -11
-13 -14 -20 -7 -16 7 4 15 1 19 -10 5 -13 10 -10 24 17 10 19 18 29 19 22 0
-7 7 -10 18 -7 14 5 14 4 2 -4 -8 -6 -17 -9 -20 -7 -4 2 -7 -2 -7 -10 0 -8 6
-16 13 -19 9 -3 11 1 7 11 -5 12 -3 14 8 7 8 -4 23 -7 34 -5 17 3 18 1 5 -15
-14 -17 -14 -17 11 -1 30 20 47 11 21 -11 -13 -11 -11 -10 9 1 20 12 29 13 39
4 10 -9 11 -9 6 1 -10 17 4 15 28 -6 17 -14 18 -14 8 -1 -10 14 -10 18 4 23
21 8 24 8 24 -5 0 -5 -4 -7 -10 -4 -6 4 -7 -1 -3 -11 4 -11 8 -13 11 -6 2 7
10 12 18 12 9 0 12 -5 8 -12 -4 -7 -3 -8 5 -4 6 4 9 11 6 16 -3 5 -1 11 5 15
6 4 7 11 4 17 -4 7 -2 8 5 4 9 -6 9 -11 0 -22 -9 -12 -6 -14 19 -14 17 0 32
-6 35 -12 3 -10 7 -10 20 1 16 12 22 8 18 -12 -1 -5 3 -6 9 -2 6 3 8 10 5 14
-2 5 2 17 11 27 14 18 15 18 5 -2 -8 -17 -7 -25 4 -34 13 -11 14 -10 8 6 -6
16 -5 17 9 6 11 -9 18 -10 23 -2 3 5 11 10 16 10 6 0 8 -4 5 -8 -2 -4 6 -8 20
-8 16 0 23 5 20 12 -3 8 1 11 9 7 8 -3 13 -9 10 -13 -3 -5 -1 -12 5 -15 6 -4
10 -3 9 2 -1 4 -1 15 0 23 1 13 3 13 10 0 6 -8 7 -18 4 -24 -4 -5 -1 -6 8 0 8
5 23 9 34 9 11 1 19 7 17 14 -1 7 2 10 8 6 6 -3 8 -10 5 -15 -3 -5 0 -12 6
-16 7 -4 9 -3 6 3 -4 6 3 19 15 29 12 11 18 14 15 7 -4 -6 -3 -14 3 -18 6 -4
7 -11 4 -17 -5 -7 -2 -8 7 -2 8 5 21 9 29 9 8 0 21 4 29 9 9 6 12 5 7 -2 -3
-6 -1 -14 5 -18 7 -4 9 -3 6 2 -3 6 25 10 71 10 71 -1 77 1 74 19 -2 17 0 16
13 -5 9 -14 14 -17 11 -8 -7 22 -2 23 19 1 16 -15 16 -14 12 15 -3 18 0 35 5
38 6 4 8 2 4 -4 -7 -12 9 -25 38 -29 19 -3 19 -3 0 19 l-19 22 27 -20 c23 -16
25 -21 12 -30 -7 -6 -14 -15 -14 -19 0 -4 7 -2 15 5 12 10 18 10 33 -1 15 -13
16 -12 3 4 -15 20 -9 22 21 6 12 -7 18 -7 14 -1 -3 6 -3 12 1 15 5 2 3 3 -3 1
-6 -1 -11 4 -11 11 0 10 5 11 18 4 12 -6 20 -5 24 1 5 8 11 8 19 1 8 -7 16 -7
23 0 6 6 10 5 10 -5 0 -14 -14 -16 -34 -3 -6 4 -14 3 -18 -3 -3 -5 0 -10 7
-11 7 0 23 -2 36 -5 18 -3 22 1 23 24 0 16 3 21 6 12 10 -27 58 -47 69 -29 3
5 10 9 15 9 6 0 8 -4 5 -8 -3 -5 1 -9 9 -9 10 0 12 4 5 12 -5 7 -7 15 -3 18 3
4 2 7 -3 7 -6 0 -15 -5 -22 -12 -7 -7 -12 -8 -12 -4 0 5 -7 3 -15 -4 -12 -10
-15 -10 -15 4 0 9 -5 16 -12 16 -6 0 -8 3 -5 6 4 4 14 1 24 -7 15 -12 16 -12
10 4 -4 10 -3 16 2 12 5 -3 12 1 15 7 3 7 3 2 -1 -12 -5 -22 -4 -23 11 -11 15
12 19 11 37 -7 27 -30 35 -28 15 3 -9 14 -12 25 -6 25 5 0 10 -6 10 -12 0 -9
4 -8 11 2 9 12 10 12 5 -3 -4 -12 -2 -17 6 -14 7 2 12 11 10 20 -3 20 14 31
24 16 4 -7 3 -9 -3 -6 -6 4 -10 -7 -11 -26 l-1 -32 15 28 c8 15 17 27 20 27 3
0 2 -4 -1 -10 -3 -6 5 -10 19 -10 13 0 27 -6 29 -12 4 -10 6 -10 6 0 1 7 6 10
13 6 7 -5 8 -3 3 6 -5 8 -3 11 6 8 8 -3 13 -10 12 -15 -1 -5 5 -10 13 -10 10
0 6 10 -13 29 -17 18 -22 28 -13 26 8 -2 14 3 13 10 -2 6 2 12 7 12 14 0 13
-13 -2 -28 -9 -9 -9 -12 0 -12 6 0 15 8 21 17 9 16 10 16 8 -4 0 -12 -6 -19
-12 -16 -5 4 -6 2 -2 -2 12 -14 36 -14 31 -2 -6 17 10 38 32 41 10 2 19 10 19
19 0 22 12 31 12 9 0 -9 -4 -23 -10 -29 -12 -16 5 -17 20 -2 6 6 9 19 6 28 -4
13 -3 14 5 1 6 -8 8 -18 6 -22 -3 -4 0 -8 6 -8 6 0 15 11 20 25 11 29 20 34
13 6 -3 -13 1 -20 14 -23 26 -5 44 21 31 47 -7 16 -6 15 9 -3 16 -20 21 -21
31 -10 9 11 9 18 -1 28 -6 8 -2 6 10 -4 18 -15 20 -22 12 -33 -7 -7 -10 -15
-8 -16 2 -1 11 -8 20 -15 13 -10 19 -9 30 5 13 16 12 17 -3 5 -10 -8 -19 -9
-22 -3 -4 5 4 13 16 17 32 9 53 44 27 44 -5 0 -8 -4 -4 -9 4 -8 -23 -31 -37
-31 -7 0 -7 40 0 41 15 1 38 7 55 14 20 8 21 2 7 -26 -7 -13 -7 -19 0 -19 5 0
10 7 10 16 0 8 5 12 10 9 6 -4 7 -12 3 -18 -5 -9 -3 -9 8 0 12 10 18 10 28 0
7 -6 12 -7 11 -2 -4 19 0 35 9 35 5 0 8 -8 6 -17 -1 -10 0 -12 2 -5 5 15 9 15
34 1 11 -5 16 -15 13 -21 -4 -7 -2 -8 5 -4 8 6 9 12 2 20 -6 7 -9 22 -6 34 3
19 1 21 -14 12 -10 -5 -22 -6 -26 -2 -5 4 -5 2 -2 -4 4 -8 -4 -10 -24 -8 -25
3 -29 1 -20 -9 8 -10 7 -14 -4 -14 -8 0 -11 5 -8 10 3 6 2 7 -3 4 -6 -3 -10 6
-11 21 -1 19 0 22 5 10 7 -17 9 -16 40 2 17 11 32 25 32 32 0 6 3 8 6 5 4 -4
1 -13 -5 -21 -8 -10 -9 -16 -1 -21 5 -3 10 -2 10 2 0 5 6 17 13 28 11 14 16
15 22 5 6 -9 4 -11 -5 -5 -8 5 -11 3 -9 -4 7 -20 23 -16 35 8 10 19 12 20 18
6 5 -14 8 -14 33 2 15 10 24 13 20 7 -4 -7 0 -14 8 -18 8 -3 17 -1 20 4 4 6 1
10 -4 10 -6 0 -11 5 -11 11 0 8 5 8 15 -1 17 -14 21 0 5 16 -7 7 -6 11 5 11 8
0 13 -2 10 -5 -2 -2 3 -18 11 -34 8 -16 12 -33 9 -38 -4 -6 1 -7 11 -3 13 5
15 3 9 -7 -6 -9 -4 -11 4 -6 9 6 8 13 -5 27 -9 10 -12 19 -6 19 6 0 19 -10 29
-23 10 -12 17 -21 16 -19 -1 2 10 14 24 26 20 17 23 25 13 31 -9 6 -11 4 -5
-6 5 -8 4 -10 0 -6 -5 4 -10 13 -11 20 -1 7 -3 19 -5 27 -6 21 23 18 43 -5 10
-11 17 -15 18 -8 0 6 -4 15 -10 18 -5 3 -10 16 -9 28 1 20 2 20 8 -3 4 -14 12
-26 19 -26 7 -1 17 -2 23 -3 5 0 7 -6 3 -12 -5 -8 -8 -8 -14 0 -3 7 -7 -2 -7
-19 0 -16 4 -30 9 -30 5 0 6 5 2 11 -4 8 1 9 17 4 13 -3 20 -3 14 2 -15 12
-15 52 0 47 15 -6 40 22 27 30 -6 3 -12 -1 -16 -9 -4 -11 -11 -13 -30 -6 -13
6 -27 7 -31 3 -3 -3 -3 2 1 13 5 11 9 14 12 7 2 -7 11 -12 20 -11 11 0 12 2 5
6 -7 2 -13 9 -13 15 0 7 4 7 13 0 16 -14 36 -11 67 11 16 11 19 17 9 17 -8 0
-21 -6 -29 -12 -12 -11 -12 -10 0 5 9 13 21 16 39 12 22 -6 23 -5 10 12 -12
16 -12 17 1 6 10 -8 21 -9 30 -3 8 6 11 10 5 10 -5 0 -2 5 8 11 9 5 21 8 26 5
5 -3 11 1 14 8 4 10 15 13 34 10 15 -3 24 -2 21 2 -4 4 9 16 30 27 72 38 116
73 150 117 35 45 36 58 19 135 -3 11 -19 81 -37 155 -18 74 -33 142 -35 150
-2 8 -8 35 -15 60 -7 25 -14 53 -16 63 -2 10 -22 91 -44 180 -23 89 -43 169
-46 177 -37 150 -107 389 -143 492 -33 94 -112 192 -188 231 -35 18 -247 101
-455 177 -158 58 -469 161 -488 161 -13 1 -29 23 -23 33 3 6 3 8 -1 4 -9 -8
-72 51 -68 64 1 5 -3 6 -9 3 -12 -8 -79 58 -79 79 0 7 -11 30 -25 50 -22 33
-25 47 -25 134 0 91 2 101 29 144 43 68 87 167 117 265 15 49 37 96 48 107 12
10 33 28 48 41 39 33 111 151 130 214 24 77 17 181 -17 262 -21 48 -27 77 -24
114 8 124 2 364 -10 415 -53 229 -120 317 -335 440 -112 64 -251 115 -341 127
-36 4 -185 10 -188 7z m-1882 -4669 c6 -1 9 -6 8 -13 -4 -15 13 -16 22 -2 5 8
11 8 19 1 7 -6 16 -8 20 -4 4 4 4 -1 1 -12 -7 -20 -6 -20 11 0 14 16 16 17 11
3 -8 -22 31 -47 43 -29 5 9 11 7 20 -4 9 -11 15 -13 20 -5 5 8 9 6 13 -5 4 -9
3 -13 -3 -10 -6 3 -10 2 -10 -3 0 -17 13 -21 32 -11 19 10 19 11 1 24 -10 7
-15 17 -10 21 4 4 7 2 7 -4 0 -7 5 -12 11 -12 5 0 7 5 3 12 -4 6 -3 8 4 5 11
-8 11 -25 -1 -44 -5 -8 1 -11 20 -10 19 1 28 -3 28 -13 0 -9 -10 -14 -25 -14
-14 0 -30 -6 -36 -14 -8 -12 -14 -9 -29 14 -11 16 -18 36 -17 44 2 8 -7 3 -20
-12 -22 -27 -42 -27 -44 0 -3 38 -5 43 -14 37 -6 -4 -8 -10 -6 -14 3 -4 -6 -7
-19 -7 -13 0 -23 2 -23 6 2 19 -3 30 -12 25 -6 -3 -13 1 -16 10 -6 14 -8 14
-19 -2 -12 -15 -13 -15 -22 3 -8 17 -9 28 -4 50 0 3 7 2 14 -3 6 -4 17 -8 22
-8z m3715 -36 c0 -14 -17 -10 -23 5 -4 10 -1 13 9 9 7 -3 14 -9 14 -14z
m-3585 1 c-3 -5 -12 -10 -18 -10 -7 0 -6 4 3 10 19 12 23 12 15 0z m3482 -15
c0 -8 -4 -12 -9 -9 -5 3 -6 10 -3 15 9 13 12 11 12 -6z m-60 -10 c0 -8 -4 -12
-9 -9 -5 3 -6 10 -3 15 9 13 12 11 12 -6z m-60 -10 c0 -8 -4 -12 -9 -9 -5 3
-6 10 -3 15 9 13 12 11 12 -6z m-3146 -12 c13 -17 13 -17 -6 -3 -11 8 -22 16
-24 17 -2 2 0 3 6 3 6 0 17 -8 24 -17z m-44 -9 c-3 -3 -12 -4 -19 -1 -8 3 -5
6 6 6 11 1 17 -2 13 -5z m23 -25 c-6 -10 -13 -19 -16 -19 -2 0 0 8 5 19 6 10
7 22 3 26 -4 5 -1 5 6 1 9 -5 9 -12 2 -27z m100 27 c0 -2 -8 -10 -17 -17 -16
-13 -17 -12 -4 4 13 16 21 21 21 13z m65 -5 c3 -5 2 -12 -3 -15 -5 -3 -9 1 -9
9 0 17 3 19 12 6z m2921 -16 c-1 -13 -5 -27 -9 -30 -4 -3 -5 -2 -2 2 3 3 -3
12 -13 20 -16 12 -16 13 1 7 10 -4 17 -3 16 2 -2 12 0 24 4 24 2 0 3 -11 3
-25z m37 0 c-7 -21 -12 -19 -10 4 0 11 5 18 9 15 4 -3 5 -11 1 -19z m71 0 c3
-8 1 -15 -4 -15 -6 0 -10 7 -10 15 0 8 2 15 4 15 2 0 6 -7 10 -15z m-3221 -10
c-3 -9 -8 -14 -10 -11 -3 3 -2 9 2 15 9 16 15 13 8 -4z m3011 -1 c3 -8 2 -12
-4 -9 -6 3 -10 10 -10 16 0 14 7 11 14 -7z m268 -14 c15 -26 15 -32 3 -36 -8
-3 -27 4 -42 16 -21 17 -24 21 -9 18 10 -1 21 3 24 11 3 9 0 11 -8 6 -9 -5
-11 -4 -6 3 11 18 20 14 38 -18z m-3158 -2 c-3 -4 0 -8 7 -8 7 0 10 -2 7 -5
-7 -7 -38 5 -38 14 0 4 7 8 15 8 8 0 12 -4 9 -9z m116 8 c0 -3 -4 -8 -10 -11
-5 -3 -10 -1 -10 4 0 6 5 11 10 11 6 0 10 -2 10 -4z m120 -10 c0 -2 -6 -9 -14
-15 -11 -9 -16 -9 -22 0 -4 7 -3 9 4 5 6 -3 13 -2 17 4 6 10 15 14 15 6z m37
-23 c0 -8 -4 -10 -12 -3 -7 5 -16 6 -20 2 -5 -4 -5 -2 -2 4 9 15 34 13 34 -3z
m2560 -6 c1 -11 1 -18 0 -16 -2 2 -8 11 -15 20 -9 12 -9 16 1 16 7 0 14 -9 14
-20z m-2487 -27 c-18 -12 -30 -13 -30 -2 0 4 10 9 22 9 18 2 20 0 8 -7z m51
-3 c-6 -8 -9 -16 -7 -18 2 -2 -2 -10 -10 -17 -8 -7 -14 -9 -14 -5 0 11 29 53
37 53 3 0 0 -6 -6 -13z m2360 -5 c-7 -2 -18 1 -23 6 -8 8 -4 9 13 5 13 -4 18
-8 10 -11z m-2444 -13 c8 -8 17 -8 34 1 24 11 24 11 -1 -9 -15 -12 -27 -16
-31 -9 -3 5 -10 9 -15 8 -5 -1 -10 3 -12 9 -5 14 11 14 25 0z m124 -6 c-12 -8
-25 -12 -28 -9 -4 3 -1 6 6 6 7 0 10 4 7 8 -2 4 5 9 16 9 21 2 21 2 -1 -14z
m2479 13 c0 -3 -4 -8 -10 -11 -5 -3 -10 -1 -10 4 0 6 5 11 10 11 6 0 10 -2 10
-4z m-2402 -31 c-3 -3 -9 2 -12 12 -6 14 -5 15 5 6 7 -7 10 -15 7 -18z m-26 1
c7 4 8 2 4 -5 -9 -13 -26 -5 -25 12 0 9 2 8 6 -1 2 -6 10 -9 15 -6z m2148 -16
c0 -5 -2 -10 -4 -10 -3 0 -8 5 -11 10 -3 6 -1 10 4 10 6 0 11 -4 11 -10z
m-1940 -15 c7 -9 8 -15 2 -15 -5 0 -12 7 -16 15 -3 8 -4 15 -2 15 2 0 9 -7 16
-15z m1460 -39 c0 -2 -7 -7 -16 -10 -8 -3 -12 -2 -9 4 6 10 25 14 25 6z m235
-27 c-3 -4 -13 -5 -22 -2 -11 4 -13 8 -5 11 7 2 9 9 5 15 -4 7 1 6 10 -2 9 -7
14 -17 12 -22z m-1474 -16 c-12 -20 -14 -14 -5 12 4 9 9 14 11 11 3 -2 0 -13
-6 -23z m1179 23 c0 -3 -4 -8 -10 -11 -5 -3 -10 -1 -10 4 0 6 5 11 10 11 6 0
10 -2 10 -4z m-283 -21 c0 -8 -4 -15 -9 -15 -10 0 -11 14 -1 23 9 10 10 9 10
-8z m-752 -13 c4 -12 2 -12 -8 -4 -8 7 -16 9 -20 6 -3 -3 -13 -2 -22 3 -13 8
-10 10 14 10 17 0 33 -7 36 -15z m26 -5 c-10 -9 -11 -8 -5 6 3 10 9 15 12 12
3 -3 0 -11 -7 -18z m94 5 c-3 -3 -11 0 -18 7 -9 10 -8 11 6 5 10 -3 15 -9 12
-12z m119 10 c3 -5 -1 -9 -9 -9 -8 0 -12 4 -9 9 3 4 7 8 9 8 2 0 6 -4 9 -8z
m696 -2 c0 -5 -5 -10 -11 -10 -5 0 -7 5 -4 10 3 6 8 10 11 10 2 0 4 -4 4 -10z
m-625 -9 c3 -5 2 -12 -3 -15 -5 -3 -9 1 -9 9 0 17 3 19 12 6z m261 -15 c1 -7
-4 -13 -12 -13 -9 0 -11 4 -4 12 5 7 8 15 5 18 -3 4 -2 5 2 2 4 -3 8 -11 9
-19z m-358 -11 c-3 -3 -9 2 -12 12 -6 14 -5 15 5 6 7 -7 10 -15 7 -18z m243 2
c-10 -9 -11 -8 -5 6 3 10 9 15 12 12 3 -3 0 -11 -7 -18z m204 3 c6 -1 12 -3
14 -6 2 -2 -7 -1 -19 1 -13 3 -28 10 -34 16 -8 9 -6 9 9 1 11 -5 25 -11 30
-12z m101 -2 c3 -4 -1 -5 -10 -4 -8 1 -18 5 -22 8 -3 4 1 5 10 4 8 -1 18 -5
22 -8z"/>
<path d="M645 420 c6 -31 9 -32 24 -7 8 12 10 19 6 15 -5 -4 -14 -3 -21 3 -10
8 -12 6 -9 -11z"/>
<path d="M699 403 c-8 -10 -9 -14 -2 -10 6 4 18 -2 26 -13 13 -18 15 -19 27
-5 7 9 9 15 4 14 -20 -3 -35 2 -29 10 10 18 -13 21 -26 4z"/>
<path d="M780 358 c0 -16 23 -19 37 -5 14 13 13 15 -11 14 -14 -1 -26 -5 -26
-9z"/>
<path d="M854 323 c18 -22 36 -22 36 -1 0 5 -6 8 -14 5 -7 -3 -20 0 -27 6 -7
7 -5 2 5 -10z"/>
<path d="M906 322 c-2 -4 4 -8 15 -8 10 0 19 4 19 8 0 4 -6 8 -14 8 -8 0 -17
-4 -20 -8z"/>
<path d="M4225 290 c-3 -5 -5 -10 -3 -11 33 -8 38 -7 27 7 -14 17 -16 17 -24
4z"/>
<path d="M455 500 c-3 -5 -1 -10 4 -10 6 0 11 5 11 10 0 6 -2 10 -4 10 -3 0
-8 -4 -11 -10z"/>
<path d="M517 479 c6 -23 9 -24 16 -5 3 8 0 17 -7 19 -10 4 -12 -1 -9 -14z"/>
<path d="M4639 498 c-6 -20 -6 -39 0 -42 4 -3 7 6 7 20 0 20 -4 32 -7 22z"/>
<path d="M493 475 c0 -8 4 -12 9 -9 5 3 6 10 3 15 -9 13 -12 11 -12 -6z"/>
<path d="M550 475 c0 -3 9 -14 20 -25 12 -12 20 -15 20 -7 0 7 -9 18 -20 25
-11 7 -20 10 -20 7z"/>
<path d="M4547 456 c-4 -9 -13 -13 -22 -10 -14 6 -20 -6 -16 -30 1 -5 -5 -6
-14 -2 -9 3 -18 -1 -21 -9 -4 -8 -9 -13 -14 -10 -8 5 -45 -20 -45 -32 -2 -23
-18 -53 -26 -48 -5 3 -6 -1 -2 -11 5 -14 8 -13 19 7 7 13 13 18 14 12 0 -7 4
-13 10 -13 5 0 7 6 4 13 -2 7 4 13 16 14 17 2 19 -1 9 -20 -9 -19 -7 -18 10 3
26 32 26 43 1 35 -11 -3 -20 -2 -20 3 0 5 6 9 13 9 6 0 21 4 31 9 12 4 17 4
13 -2 -3 -6 -1 -16 4 -24 9 -13 10 -13 6 0 -2 8 2 21 10 28 7 8 11 18 8 23 -4
5 -2 9 3 9 17 0 21 -13 11 -31 -7 -14 -6 -17 4 -14 13 6 21 45 8 45 -4 0 -16
7 -27 15 -18 14 -18 14 5 10 12 -2 29 -9 37 -16 10 -8 14 -8 14 0 0 6 -4 11
-10 11 -5 0 -10 4 -10 9 0 5 10 7 23 4 12 -3 20 -3 17 0 -3 3 -14 7 -25 9 -11
1 -23 7 -26 11 -3 5 -9 2 -12 -7z m-21 -51 c1 -8 -2 -17 -7 -21 -5 -3 -8 6 -7
20 2 26 10 26 14 1z m-34 -17 c-5 -5 -18 -11 -28 -12 -11 -2 -18 -10 -18 -18
1 -8 -4 -15 -11 -15 -14 0 -8 36 6 38 5 1 14 3 19 4 6 1 15 3 21 4 5 0 7 6 3
13 -5 7 -3 8 5 3 8 -4 9 -11 3 -17z"/>
<path d="M496 440 c8 -7 54 -7 54 0 0 4 -13 7 -29 6 -16 0 -27 -3 -25 -6z"/>
<path d="M4619 393 c-13 -17 -13 -17 6 -3 11 8 22 16 24 17 2 2 0 3 -6 3 -6 0
-17 -8 -24 -17z"/>
<path d="M4673 395 c0 -8 4 -12 9 -9 5 3 6 10 3 15 -9 13 -12 11 -12 -6z"/>
<path d="M576 358 c3 -5 10 -6 15 -3 13 9 11 12 -6 12 -8 0 -12 -4 -9 -9z"/>
<path d="M4610 360 c0 -5 5 -10 11 -10 5 0 7 5 4 10 -3 6 -8 10 -11 10 -2 0
-4 -4 -4 -10z"/>
<path d="M650 339 c0 -5 5 -7 10 -4 6 3 10 8 10 11 0 2 -4 4 -10 4 -5 0 -10
-5 -10 -11z"/>
<path d="M4270 321 c6 -12 18 -21 26 -21 8 0 13 -4 10 -9 -3 -4 1 -17 10 -27
15 -18 15 -18 5 2 -7 15 -7 25 2 34 9 10 9 11 0 6 -6 -3 -14 -2 -18 4 -3 5
-15 15 -26 21 -19 10 -20 9 -9 -10z"/>
<path d="M620 326 c0 -2 8 -10 18 -17 15 -13 16 -12 3 4 -13 16 -21 21 -21 13z"/>
<path d="M4490 318 c0 -6 3 -8 7 -5 3 4 13 1 22 -6 14 -11 14 -10 2 6 -15 20
-31 22 -31 5z"/>
<path d="M4535 320 c3 -5 8 -10 11 -10 2 0 4 5 4 10 0 6 -5 10 -11 10 -5 0 -7
-4 -4 -10z"/>
<path d="M710 295 c5 -7 6 -16 2 -21 -4 -5 -3 -5 2 -1 15 12 15 34 0 34 -9 0
-11 -4 -4 -12z"/>
<path d="M740 306 c0 -2 7 -7 16 -10 8 -3 12 -2 9 4 -6 10 -25 14 -25 6z"/>
<path d="M831 284 c0 -11 3 -14 6 -6 3 7 2 16 -1 19 -3 4 -6 -2 -5 -13z"/>
<path d="M1000 285 c-11 -13 -10 -14 4 -9 12 5 15 2 9 -12 -4 -11 -3 -15 5
-10 6 3 15 -2 21 -11 6 -10 10 -13 10 -8 0 6 -6 19 -14 29 -8 10 -12 23 -9 27
9 15 -13 10 -26 -6z"/>
<path d="M4493 285 c0 -8 4 -12 9 -9 5 3 6 10 3 15 -9 13 -12 11 -12 -6z"/>
<path d="M910 280 c0 -5 5 -10 11 -10 5 0 7 5 4 10 -3 6 -8 10 -11 10 -2 0 -4
-4 -4 -10z"/>
<path d="M4151 276 c-9 -10 -9 -16 -1 -21 16 -10 31 7 21 23 -6 10 -10 10 -20
-2z"/>
<path d="M941 266 c-9 -10 -9 -16 -1 -21 6 -4 14 -4 17 -1 4 3 1 6 -6 6 -7 0
-9 5 -6 11 4 6 14 8 22 5 8 -3 11 -1 8 4 -9 14 -21 12 -34 -4z"/>
<path d="M4085 270 c-4 -6 -11 -8 -16 -4 -11 6 -39 -13 -39 -27 0 -5 5 -9 11
-9 5 0 7 5 3 12 -4 7 -3 8 5 4 6 -4 9 -12 6 -17 -4 -5 -1 -17 5 -26 9 -15 10
-14 4 6 -4 17 -3 21 6 16 9 -6 9 -2 0 16 -10 19 -10 22 0 12 7 -6 20 -9 29 -5
14 5 14 4 2 -11 -7 -9 -12 -17 -10 -18 31 -6 39 -6 39 2 0 5 -5 9 -11 9 -5 0
-7 5 -3 12 5 7 11 5 21 -7 7 -11 13 -14 13 -9 0 13 -38 54 -50 54 -5 0 -12 -5
-15 -10z"/>
<path d="M1270 252 c0 -7 -4 -11 -8 -8 -5 3 -9 -1 -9 -9 0 -11 4 -12 14 -3 11
8 12 7 7 -6 -3 -9 -1 -16 4 -16 19 0 22 16 7 36 -9 12 -14 14 -15 6z"/>
<path d="M816 233 c-6 -14 -5 -15 5 -6 7 7 10 15 7 18 -3 3 -9 -2 -12 -12z"/>
<path d="M970 241 c0 -6 4 -13 10 -16 6 -3 7 1 4 9 -7 18 -14 21 -14 7z"/>
<path d="M4265 240 c-3 -6 1 -7 9 -4 18 7 21 14 7 14 -6 0 -13 -4 -16 -10z"/>
<path d="M4436 242 c-3 -5 1 -9 9 -9 8 0 12 4 9 9 -3 4 -7 8 -9 8 -2 0 -6 -4
-9 -8z"/>
<path d="M1096 222 c-3 -5 1 -9 9 -9 8 0 12 4 9 9 -3 4 -7 8 -9 8 -2 0 -6 -4
-9 -8z"/>
<path d="M4176 221 c-3 -5 2 -15 12 -22 15 -12 16 -12 5 2 -7 9 -10 19 -6 22
3 4 4 7 0 7 -3 0 -8 -4 -11 -9z"/>
<path d="M3825 200 c-3 -5 1 -10 10 -10 9 0 13 5 10 10 -3 6 -8 10 -10 10 -2
0 -7 -4 -10 -10z"/>
<path d="M1318 183 c7 -3 16 -2 19 1 4 3 -2 6 -13 5 -11 0 -14 -3 -6 -6z"/>
<path d="M1525 180 c-4 -6 -11 -8 -16 -5 -5 3 -6 -1 -3 -10 4 -9 7 -15 8 -13
1 2 8 11 15 21 7 9 11 17 8 17 -3 0 -9 -5 -12 -10z"/>
<path d="M3782 178 c-7 -7 -18 -13 -25 -13 -7 0 -12 -4 -12 -10 0 -5 -4 -15
-8 -22 -4 -6 -2 -15 4 -19 7 -4 9 -3 5 4 -3 6 2 17 11 24 19 14 48 48 41 48
-2 0 -10 -6 -16 -12z"/>
<path d="M1335 160 c-3 -5 -1 -10 4 -10 6 0 11 5 11 10 0 6 -2 10 -4 10 -3 0
-8 -4 -11 -10z"/>
<path d="M1395 160 c-3 -5 -1 -10 4 -10 6 0 11 5 11 10 0 6 -2 10 -4 10 -3 0
-8 -4 -11 -10z"/>
<path d="M1430 140 c0 -5 5 -10 11 -10 5 0 7 5 4 10 -3 6 -8 10 -11 10 -2 0
-4 -4 -4 -10z"/>
<path d="M1556 142 c-2 -4 0 -14 6 -22 8 -12 9 -12 5 2 -3 9 -1 19 6 22 9 3 9
5 0 5 -6 1 -14 -3 -17 -7z"/>
<path d="M1696 134 c-8 -22 -4 -25 11 -9 7 8 9 16 4 19 -5 3 -12 -1 -15 -10z"/>
<path d="M3677 143 c-12 -11 3 -22 21 -16 15 6 15 5 3 -10 -7 -9 -11 -17 -8
-17 2 0 10 6 16 14 10 12 8 17 -7 25 -11 6 -22 8 -25 4z"/>
<path d="M1590 129 c0 -5 5 -7 10 -4 6 3 10 8 10 11 0 2 -4 4 -10 4 -5 0 -10
-5 -10 -11z"/>
<path d="M3580 125 c-9 -11 -9 -15 -1 -15 7 0 9 -5 5 -11 -4 -7 1 -7 15 1 18
9 26 9 39 -2 13 -11 14 -11 7 1 -6 11 -4 13 9 8 14 -6 15 -3 6 14 -9 16 -14
18 -26 8 -10 -8 -17 -9 -28 0 -10 9 -16 8 -26 -4z"/>
<path d="M1625 120 c-3 -6 1 -7 9 -4 18 7 21 14 7 14 -6 0 -13 -4 -16 -10z"/>
<path d="M1893 93 c-1 -17 2 -21 7 -13 4 7 15 10 23 7 11 -4 14 -1 10 9 -3 8
-8 12 -11 10 -3 -3 -10 -2 -16 3 -7 6 -12 1 -13 -16z"/>
<path d="M2989 53 c14 -28 17 -28 25 -6 4 10 4 14 0 10 -4 -4 -14 -1 -22 6
-13 10 -14 9 -3 -10z"/>
</g>
</svg>
